<svg xmlns="http://www.w3.org/2000/svg" viewBox="0 0 1000 720">
  <defs>
    <linearGradient id="neonPink" x1="0%" y1="0%" x2="100%" y2="0%">
      <stop offset="0%" style="stop-color:#ff0080"/>
      <stop offset="100%" style="stop-color:#ff00ff"/>
    </linearGradient>
    <linearGradient id="neonBlue" x1="0%" y1="0%" x2="100%" y2="0%">
      <stop offset="0%" style="stop-color:#00ffff"/>
      <stop offset="100%" style="stop-color:#0080ff"/>
    </linearGradient>
    <!-- 경사면 그라데이션 -->
    <linearGradient id="slopeLeft" x1="100%" y1="0%" x2="0%" y2="0%">
      <stop offset="0%" style="stop-color:#1a1a22"/>
      <stop offset="100%" style="stop-color:#0a0a15"/>
    </linearGradient>
    <linearGradient id="slopeRight" x1="0%" y1="0%" x2="100%" y2="0%">
      <stop offset="0%" style="stop-color:#1a1a22"/>
      <stop offset="100%" style="stop-color:#0a0a15"/>
    </linearGradient>
    <!-- 전봇대 심볼 -->
    <symbol id="pole" viewBox="0 0 20 40">
      <rect x="8" y="0" width="4" height="40" fill="#4a4a4a"/>
      <rect x="2" y="5" width="16" height="2" fill="#3a3a3a"/>
      <rect x="4" y="10" width="12" height="1.5" fill="#3a3a3a"/>
      <circle cx="5" cy="5" r="1.5" fill="#666"/>
      <circle cx="15" cy="5" r="1.5" fill="#666"/>
    </symbol>
    <!-- 대문 심볼 -->
    <symbol id="gate" viewBox="0 0 10 8">
      <rect x="0" y="0" width="10" height="8" fill="#5a4030"/>
      <rect x="1" y="1" width="3.5" height="6" fill="#4a3525" stroke="#3a2a1a" stroke-width="0.5"/>
      <rect x="5.5" y="1" width="3.5" height="6" fill="#4a3525" stroke="#3a2a1a" stroke-width="0.5"/>
      <circle cx="4" cy="4" r="0.5" fill="#aa8855"/>
      <circle cx="6" cy="4" r="0.5" fill="#aa8855"/>
    </symbol>
    <!-- 좌판 심볼 -->
    <symbol id="stall" viewBox="0 0 20 15">
      <rect x="0" y="5" width="20" height="10" fill="#4a3a2a" stroke="#3a2a1a" stroke-width="0.5"/>
      <rect x="2" y="0" width="2" height="5" fill="#5a4a3a"/>
      <rect x="16" y="0" width="2" height="5" fill="#5a4a3a"/>
      <rect x="1" y="0" width="18" height="2" fill="#6a5a4a"/>
    </symbol>
    <!-- 입간판 심볼 (세로) -->
    <symbol id="signV" viewBox="0 0 8 25">
      <rect x="3" y="20" width="2" height="5" fill="#4a4a4a"/>
      <rect x="0" y="0" width="8" height="20" fill="#1a1a3a" stroke="#ff0080" stroke-width="1"/>
      <rect x="1" y="2" width="6" height="4" fill="#ff0080" opacity="0.3"/>
      <rect x="1" y="8" width="6" height="3" fill="#00ffff" opacity="0.3"/>
      <rect x="1" y="13" width="6" height="4" fill="#ffff00" opacity="0.3"/>
    </symbol>
    <!-- 가로등 심볼 -->
    <symbol id="streetlamp" viewBox="0 0 14 30">
      <rect x="6" y="8" width="2" height="22" fill="#4a4a4a"/>
      <rect x="3" y="5" width="8" height="4" fill="#3a3a3a" rx="1"/>
      <ellipse cx="7" cy="4" rx="5" ry="3" fill="#2a2a2a" stroke="#555" stroke-width="0.5"/>
      <ellipse cx="7" cy="4" rx="3" ry="2" fill="#ffdd88" opacity="0.8"/>
      <circle cx="7" cy="4" r="1.5" fill="#ffeeaa"/>
    </symbol>
    <!-- 가로수 심볼 -->
    <symbol id="tree" viewBox="0 0 20 25">
      <rect x="8" y="15" width="4" height="10" fill="#4a3020"/>
      <ellipse cx="10" cy="10" rx="8" ry="10" fill="#1a4a1a"/>
      <ellipse cx="7" cy="8" rx="5" ry="6" fill="#2a5a2a"/>
      <ellipse cx="13" cy="9" rx="4" ry="5" fill="#2a5a2a"/>
    </symbol>
  </defs>
  
  <!-- 배경 -->
  <rect width="1000" height="720" fill="#0a0a15"/>
  
  <!-- ========================================== -->
  <!-- 좌측 끝 - 경사면 + 옹벽 + 건물 -->
  <!-- ========================================== -->
  
  <!-- 좌측 경사면 (언덕 올라가는 느낌) -->
  <polygon points="0,0 60,0 30,720 0,720" fill="url(#slopeLeft)"/>
  
  <!-- 좌측 옹벽 -->
  <rect x="0" y="145" width="25" height="310" fill="#2a2a2a" stroke="#222" stroke-width="2"/>
  <line x1="5" y1="160" x2="5" y2="440" stroke="#333" stroke-width="1"/>
  <line x1="12" y1="160" x2="12" y2="440" stroke="#333" stroke-width="1"/>
  <line x1="19" y1="160" x2="19" y2="440" stroke="#333" stroke-width="1"/>
  
  <!-- 좌측 끝 막힌 건물들 -->
  <rect x="0" y="400" width="40" height="56" fill="#2d2d4e" stroke="#5050aa" stroke-width="2"/>
  <rect x="0" y="466" width="50" height="100" fill="#1b1b4e" stroke="url(#neonBlue)" stroke-width="2"/>
  <rect x="0" y="576" width="45" height="80" fill="#4e1b3d" stroke="#ff0080" stroke-width="2"/>
  <rect x="0" y="665" width="55" height="55" fill="#2d3d3d" stroke="#50aaaa" stroke-width="1"/>
  
  <!-- ========================================== -->
  <!-- 우측 끝 - 경사면 + 옹벽 + 건물 -->
  <!-- ========================================== -->
  
  <!-- 우측 경사면 -->
  <polygon points="940,0 1000,0 1000,720 970,720" fill="url(#slopeRight)"/>
  
  <!-- 우측 옹벽 -->
  <rect x="975" y="145" width="25" height="310" fill="#2a2a2a" stroke="#222" stroke-width="2"/>
  <line x1="980" y1="160" x2="980" y2="440" stroke="#333" stroke-width="1"/>
  <line x1="987" y1="160" x2="987" y2="440" stroke="#333" stroke-width="1"/>
  <line x1="994" y1="160" x2="994" y2="440" stroke="#333" stroke-width="1"/>
  
  <!-- 우측 끝 막힌 건물들 -->
  <rect x="960" y="400" width="40" height="56" fill="#3d2d4e" stroke="#8060aa" stroke-width="2"/>
  <rect x="950" y="466" width="50" height="100" fill="#4e1b4e" stroke="url(#neonPink)" stroke-width="2"/>
  <rect x="955" y="576" width="45" height="80" fill="#1b4e3d" stroke="#00ff80" stroke-width="2"/>
  <rect x="945" y="665" width="55" height="55" fill="#3d3d2d" stroke="#aaaa50" stroke-width="1"/>
  
  <!-- ========================================== -->
  <!-- 주택단지 (Y: 0-140) -->
  <!-- ========================================== -->
  
  <!-- === 1열 주택 === -->
  <g>
    <rect x="50" y="15" width="70" height="60" fill="#3d3d3d" stroke="#2a2a2a" stroke-width="1"/>
    <rect x="55" y="20" width="35" height="30" fill="#2d2d3d" stroke="#8080aa" stroke-width="1.5"/>
    <rect x="55" y="52" width="60" height="18" fill="#252525"/>
    <use href="#gate" x="75" y="67" width="14" height="10"/>
  </g>
  
  <g>
    <rect x="120" y="15" width="55" height="60" fill="#3d3d3d" stroke="#2a2a2a" stroke-width="1"/>
    <rect x="125" y="20" width="45" height="45" fill="#2d3d2d" stroke="#80aa80" stroke-width="1.5"/>
    <use href="#gate" x="140" y="67" width="14" height="10"/>
  </g>
  
  <g>
    <rect x="175" y="15" width="80" height="60" fill="#3d3d3d" stroke="#2a2a2a" stroke-width="1"/>
    <rect x="180" y="20" width="40" height="25" fill="#3d2d2d" stroke="#aa8080" stroke-width="1.5"/>
    <rect x="180" y="47" width="70" height="23" fill="#252525"/>
    <use href="#gate" x="205" y="67" width="14" height="10"/>
  </g>
  
  <g>
    <rect x="255" y="15" width="50" height="60" fill="#3d3d3d" stroke="#2a2a2a" stroke-width="1"/>
    <rect x="260" y="20" width="40" height="45" fill="#2d2d3d" stroke="#8080aa" stroke-width="1.5"/>
    <use href="#gate" x="270" y="67" width="14" height="10"/>
  </g>
  
  <g>
    <rect x="330" y="15" width="65" height="60" fill="#3d3d3d" stroke="#2a2a2a" stroke-width="1"/>
    <rect x="335" y="20" width="30" height="28" fill="#3d2d3d" stroke="#aa80aa" stroke-width="1.5"/>
    <rect x="335" y="50" width="55" height="20" fill="#252525"/>
    <use href="#gate" x="355" y="67" width="14" height="10"/>
  </g>
  
  <g>
    <rect x="395" y="15" width="55" height="60" fill="#3d3d3d" stroke="#2a2a2a" stroke-width="1"/>
    <rect x="400" y="20" width="45" height="45" fill="#2d3d2d" stroke="#80aa80" stroke-width="1.5"/>
    <use href="#gate" x="415" y="67" width="14" height="10"/>
  </g>
  
  <g>
    <rect x="450" y="15" width="70" height="60" fill="#3d3d3d" stroke="#2a2a2a" stroke-width="1"/>
    <rect x="455" y="20" width="35" height="25" fill="#2d2d3d" stroke="#8080aa" stroke-width="1.5"/>
    <rect x="455" y="47" width="60" height="23" fill="#252525"/>
    <use href="#gate" x="480" y="67" width="14" height="10"/>
  </g>
  
  <g>
    <rect x="520" y="15" width="50" height="60" fill="#3d3d3d" stroke="#2a2a2a" stroke-width="1"/>
    <rect x="525" y="20" width="40" height="45" fill="#3d2d2d" stroke="#aa8080" stroke-width="1.5"/>
    <use href="#gate" x="535" y="67" width="14" height="10"/>
  </g>
  
  <g>
    <rect x="570" y="15" width="75" height="60" fill="#3d3d3d" stroke="#2a2a2a" stroke-width="1"/>
    <rect x="575" y="20" width="40" height="28" fill="#2d3d3d" stroke="#80aaaa" stroke-width="1.5"/>
    <rect x="575" y="50" width="65" height="20" fill="#252525"/>
    <use href="#gate" x="600" y="67" width="14" height="10"/>
  </g>
  
  <g>
    <rect x="645" y="15" width="55" height="60" fill="#3d3d3d" stroke="#2a2a2a" stroke-width="1"/>
    <rect x="650" y="20" width="45" height="45" fill="#3d2d3d" stroke="#aa80aa" stroke-width="1.5"/>
    <use href="#gate" x="665" y="67" width="14" height="10"/>
  </g>
  
  <g>
    <rect x="700" y="15" width="65" height="60" fill="#3d3d3d" stroke="#2a2a2a" stroke-width="1"/>
    <rect x="705" y="20" width="30" height="25" fill="#2d2d3d" stroke="#8080aa" stroke-width="1.5"/>
    <rect x="705" y="47" width="55" height="23" fill="#252525"/>
    <use href="#gate" x="725" y="67" width="14" height="10"/>
  </g>
  
  <g>
    <rect x="765" y="15" width="50" height="60" fill="#3d3d3d" stroke="#2a2a2a" stroke-width="1"/>
    <rect x="770" y="20" width="40" height="45" fill="#2d3d2d" stroke="#80aa80" stroke-width="1.5"/>
    <use href="#gate" x="780" y="67" width="14" height="10"/>
  </g>
  
  <g>
    <rect x="815" y="15" width="70" height="60" fill="#3d3d3d" stroke="#2a2a2a" stroke-width="1"/>
    <rect x="820" y="20" width="35" height="28" fill="#3d2d2d" stroke="#aa8080" stroke-width="1.5"/>
    <rect x="820" y="50" width="60" height="20" fill="#252525"/>
    <use href="#gate" x="840" y="67" width="14" height="10"/>
  </g>
  
  <g>
    <rect x="885" y="15" width="55" height="60" fill="#3d3d3d" stroke="#2a2a2a" stroke-width="1"/>
    <rect x="890" y="20" width="45" height="45" fill="#2d2d3d" stroke="#8080aa" stroke-width="1.5"/>
    <use href="#gate" x="905" y="67" width="14" height="10"/>
  </g>
  
  <!-- === 2열 주택 === -->
  <g>
    <rect x="50" y="80" width="65" height="60" fill="#3d3d3d" stroke="#2a2a2a" stroke-width="1"/>
    <rect x="55" y="85" width="30" height="28" fill="#2d3d2d" stroke="#80aa80" stroke-width="1.5"/>
    <rect x="55" y="115" width="55" height="20" fill="#252525"/>
    <use href="#gate" x="75" y="132" width="14" height="10"/>
  </g>
  
  <g>
    <rect x="115" y="80" width="55" height="60" fill="#3d3d3d" stroke="#2a2a2a" stroke-width="1"/>
    <rect x="120" y="85" width="45" height="45" fill="#3d2d2d" stroke="#aa8080" stroke-width="1.5"/>
    <use href="#gate" x="135" y="132" width="14" height="10"/>
  </g>
  
  <g>
    <rect x="170" y="80" width="75" height="60" fill="#3d3d3d" stroke="#2a2a2a" stroke-width="1"/>
    <rect x="175" y="85" width="40" height="25" fill="#2d2d3d" stroke="#8080aa" stroke-width="1.5"/>
    <rect x="175" y="112" width="65" height="23" fill="#252525"/>
    <use href="#gate" x="200" y="132" width="14" height="10"/>
  </g>
  
  <g>
    <rect x="245" y="80" width="50" height="60" fill="#3d3d3d" stroke="#2a2a2a" stroke-width="1"/>
    <rect x="250" y="85" width="40" height="45" fill="#3d2d3d" stroke="#aa80aa" stroke-width="1.5"/>
    <use href="#gate" x="260" y="132" width="14" height="10"/>
  </g>
  
  <g>
    <rect x="295" y="80" width="70" height="60" fill="#3d3d3d" stroke="#2a2a2a" stroke-width="1"/>
    <rect x="300" y="85" width="35" height="25" fill="#2d3d2d" stroke="#80aa80" stroke-width="1.5"/>
    <rect x="300" y="112" width="60" height="23" fill="#252525"/>
    <use href="#gate" x="325" y="132" width="14" height="10"/>
  </g>
  
  <g>
    <rect x="365" y="80" width="55" height="60" fill="#3d3d3d" stroke="#2a2a2a" stroke-width="1"/>
    <rect x="370" y="85" width="45" height="45" fill="#2d2d3d" stroke="#8080aa" stroke-width="1.5"/>
    <use href="#gate" x="385" y="132" width="14" height="10"/>
  </g>
  
  <g>
    <rect x="420" y="80" width="65" height="60" fill="#3d3d3d" stroke="#2a2a2a" stroke-width="1"/>
    <rect x="425" y="85" width="30" height="28" fill="#3d2d2d" stroke="#aa8080" stroke-width="1.5"/>
    <rect x="425" y="115" width="55" height="20" fill="#252525"/>
    <use href="#gate" x="445" y="132" width="14" height="10"/>
  </g>
  
  <g>
    <rect x="485" y="80" width="50" height="60" fill="#3d3d3d" stroke="#2a2a2a" stroke-width="1"/>
    <rect x="490" y="85" width="40" height="45" fill="#2d3d3d" stroke="#80aaaa" stroke-width="1.5"/>
    <use href="#gate" x="500" y="132" width="14" height="10"/>
  </g>
  
  <g>
    <rect x="535" y="80" width="75" height="60" fill="#3d3d3d" stroke="#2a2a2a" stroke-width="1"/>
    <rect x="540" y="85" width="40" height="25" fill="#2d2d3d" stroke="#8080aa" stroke-width="1.5"/>
    <rect x="540" y="112" width="65" height="23" fill="#252525"/>
    <use href="#gate" x="565" y="132" width="14" height="10"/>
  </g>
  
  <g>
    <rect x="610" y="80" width="55" height="60" fill="#3d3d3d" stroke="#2a2a2a" stroke-width="1"/>
    <rect x="615" y="85" width="45" height="45" fill="#3d2d3d" stroke="#aa80aa" stroke-width="1.5"/>
    <use href="#gate" x="630" y="132" width="14" height="10"/>
  </g>
  
  <g>
    <rect x="665" y="80" width="70" height="60" fill="#3d3d3d" stroke="#2a2a2a" stroke-width="1"/>
    <rect x="670" y="85" width="35" height="28" fill="#2d3d2d" stroke="#80aa80" stroke-width="1.5"/>
    <rect x="670" y="115" width="60" height="20" fill="#252525"/>
    <use href="#gate" x="695" y="132" width="14" height="10"/>
  </g>
  
  <g>
    <rect x="735" y="80" width="50" height="60" fill="#3d3d3d" stroke="#2a2a2a" stroke-width="1"/>
    <rect x="740" y="85" width="40" height="45" fill="#3d2d2d" stroke="#aa8080" stroke-width="1.5"/>
    <use href="#gate" x="750" y="132" width="14" height="10"/>
  </g>
  
  <g>
    <rect x="785" y="80" width="65" height="60" fill="#3d3d3d" stroke="#2a2a2a" stroke-width="1"/>
    <rect x="790" y="85" width="30" height="25" fill="#2d2d3d" stroke="#8080aa" stroke-width="1.5"/>
    <rect x="790" y="112" width="55" height="23" fill="#252525"/>
    <use href="#gate" x="810" y="132" width="14" height="10"/>
  </g>
  
  <g>
    <rect x="850" y="80" width="55" height="60" fill="#3d3d3d" stroke="#2a2a2a" stroke-width="1"/>
    <rect x="855" y="85" width="45" height="45" fill="#2d3d3d" stroke="#80aaaa" stroke-width="1.5"/>
    <use href="#gate" x="870" y="132" width="14" height="10"/>
  </g>
  
  <g>
    <rect x="905" y="80" width="35" height="60" fill="#3d3d3d" stroke="#2a2a2a" stroke-width="1"/>
    <rect x="910" y="85" width="25" height="45" fill="#3d2d3d" stroke="#aa80aa" stroke-width="1.5"/>
    <use href="#gate" x="912" y="132" width="14" height="10"/>
  </g>
  
  <text x="500" y="55" fill="#aaaacc" font-size="14" font-family="sans-serif" text-anchor="middle" opacity="0.6">주택단지</text>
  
  <!-- ========================================== -->
  <!-- 주택가 도로 (Y: 145-180) + 전봇대 + 가로등 -->
  <!-- ========================================== -->
  <rect x="25" y="145" width="950" height="35" fill="#3a3a4a"/>
  
  <!-- 전봇대들 -->
  <use href="#pole" x="90" y="148" width="16" height="32"/>
  <use href="#pole" x="210" y="148" width="16" height="32"/>
  <use href="#pole" x="330" y="148" width="16" height="32"/>
  <use href="#pole" x="450" y="148" width="16" height="32"/>
  <use href="#pole" x="570" y="148" width="16" height="32"/>
  <use href="#pole" x="690" y="148" width="16" height="32"/>
  <use href="#pole" x="810" y="148" width="16" height="32"/>
  <use href="#pole" x="930" y="148" width="16" height="32"/>
  
  <!-- 전선 -->
  <path d="M 98 153 Q 158 148, 218 153 Q 278 148, 338 153 Q 398 148, 458 153 Q 518 148, 578 153 Q 638 148, 698 153 Q 758 148, 818 153 Q 878 148, 938 153" 
        fill="none" stroke="#333" stroke-width="1" opacity="0.7"/>
  <path d="M 98 156 Q 158 162, 218 156 Q 278 162, 338 156 Q 398 162, 458 156 Q 518 162, 578 156 Q 638 162, 698 156 Q 758 162, 818 156 Q 878 162, 938 156" 
        fill="none" stroke="#333" stroke-width="1" opacity="0.7"/>
  
  <!-- 가로등 (주택가 도로) -->
  <use href="#streetlamp" x="150" y="152" width="12" height="26"/>
  <use href="#streetlamp" x="270" y="152" width="12" height="26"/>
  <use href="#streetlamp" x="390" y="152" width="12" height="26"/>
  <use href="#streetlamp" x="510" y="152" width="12" height="26"/>
  <use href="#streetlamp" x="630" y="152" width="12" height="26"/>
  <use href="#streetlamp" x="750" y="152" width="12" height="26"/>
  <use href="#streetlamp" x="870" y="152" width="12" height="26"/>
  
  <line x1="25" y1="180" x2="975" y2="180" stroke="#aa3333" stroke-width="3"/>
  <text x="500" y="168" fill="#555555" font-size="10" font-family="sans-serif" text-anchor="middle">도 로</text>
  
  <!-- ========================================== -->
  <!-- 2단 계단 (Y: 180-250) -->
  <!-- ========================================== -->
  
  <rect x="320" y="180" width="360" height="70" fill="#1a1a22"/>
  
  <!-- 좌측 벽 -->
  <rect x="320" y="180" width="12" height="70" fill="#2a2a2a" stroke="#222" stroke-width="1"/>
  <!-- 우측 벽 -->
  <rect x="668" y="180" width="12" height="70" fill="#2a2a2a" stroke="#222" stroke-width="1"/>
  
  <!-- 1단 계단: 우측으로 -->
  <rect x="332" y="183" width="200" height="28" fill="#202028" stroke="#333" stroke-width="1"/>
  <g stroke="#444" stroke-width="1">
    <line x1="350" y1="183" x2="350" y2="211"/>
    <line x1="375" y1="183" x2="375" y2="211"/>
    <line x1="400" y1="183" x2="400" y2="211"/>
    <line x1="425" y1="183" x2="425" y2="211"/>
    <line x1="450" y1="183" x2="450" y2="211"/>
    <line x1="475" y1="183" x2="475" y2="211"/>
    <line x1="500" y1="183" x2="500" y2="211"/>
    <line x1="520" y1="183" x2="520" y2="211"/>
  </g>
  <text x="430" y="200" fill="#555" font-size="8" font-family="sans-serif" text-anchor="middle">→</text>
  
  <!-- 계단참 -->
  <rect x="532" y="183" width="45" height="35" fill="#252530" stroke="#333" stroke-width="1"/>
  
  <!-- 2단 계단: 좌측으로 -->
  <rect x="468" y="218" width="210" height="28" fill="#202028" stroke="#333" stroke-width="1"/>
  <g stroke="#444" stroke-width="1">
    <line x1="485" y1="218" x2="485" y2="246"/>
    <line x1="510" y1="218" x2="510" y2="246"/>
    <line x1="535" y1="218" x2="535" y2="246"/>
    <line x1="560" y1="218" x2="560" y2="246"/>
    <line x1="585" y1="218" x2="585" y2="246"/>
    <line x1="610" y1="218" x2="610" y2="246"/>
    <line x1="635" y1="218" x2="635" y2="246"/>
    <line x1="660" y1="218" x2="660" y2="246"/>
  </g>
  <text x="575" y="237" fill="#555" font-size="8" font-family="sans-serif" text-anchor="middle">←</text>
  
  <!-- 난간 -->
  <line x1="332" y1="211" x2="532" y2="211" stroke="#555" stroke-width="2"/>
  <line x1="468" y1="218" x2="468" y2="246" stroke="#555" stroke-width="2"/>
  <line x1="678" y1="218" x2="678" y2="246" stroke="#555" stroke-width="2"/>
  
  <!-- 양옆 벽면 -->
  <rect x="280" y="180" width="40" height="70" fill="#1a1a22" stroke="#333" stroke-width="1"/>
  <rect x="680" y="180" width="40" height="70" fill="#1a1a22" stroke="#333" stroke-width="1"/>
  
  <!-- ========================================== -->
  <!-- 상점가 (Y: 250-380) -->
  <!-- ========================================== -->
  
  <rect x="280" y="250" width="440" height="130" fill="#15151f"/>
  
  <!-- === 상단 상점 건물들 === -->
  <g opacity="0.95">
    <rect x="285" y="255" width="50" height="42" fill="#4e1b3d" stroke="#ff0080" stroke-width="2"/>
    <rect x="340" y="255" width="45" height="42" fill="#1b4e4e" stroke="#00ffff" stroke-width="2"/>
    <rect x="390" y="255" width="55" height="42" fill="#4e3d1b" stroke="#ffff00" stroke-width="2"/>
    <rect x="450" y="255" width="45" height="42" fill="#2d1b4e" stroke="url(#neonPink)" stroke-width="2"/>
    <rect x="500" y="255" width="50" height="42" fill="#1b2d4e" stroke="url(#neonBlue)" stroke-width="2"/>
    <rect x="555" y="255" width="45" height="42" fill="#1b4e3d" stroke="#00ff80" stroke-width="2"/>
    <rect x="605" y="255" width="50" height="42" fill="#4e1b2d" stroke="#ff4040" stroke-width="2"/>
    <rect x="660" y="255" width="55" height="42" fill="#4e1b3d" stroke="#ff0080" stroke-width="2"/>
  </g>
  
  <!-- 상단 상점 입간판 -->
  <use href="#signV" x="300" y="297" width="5" height="14"/>
  <use href="#signV" x="355" y="297" width="5" height="14"/>
  <use href="#signV" x="410" y="297" width="5" height="14"/>
  <use href="#signV" x="465" y="297" width="5" height="14"/>
  <use href="#signV" x="520" y="297" width="5" height="14"/>
  <use href="#signV" x="572" y="297" width="5" height="14"/>
  <use href="#signV" x="625" y="297" width="5" height="14"/>
  <use href="#signV" x="680" y="297" width="5" height="14"/>
  
  <!-- ========================================== -->
  <!-- 메인 골목 (가로) -->
  <!-- ========================================== -->
  <rect x="285" y="307" width="430" height="38" fill="#0a0a12"/>
  
  <!-- 좌판들 -->
  <use href="#stall" x="295" y="310" width="18" height="12"/>
  <use href="#stall" x="335" y="310" width="18" height="12"/>
  <use href="#stall" x="375" y="310" width="18" height="12"/>
  <use href="#stall" x="415" y="310" width="18" height="12"/>
  <use href="#stall" x="455" y="310" width="18" height="12"/>
  <use href="#stall" x="495" y="310" width="18" height="12"/>
  <use href="#stall" x="535" y="310" width="18" height="12"/>
  <use href="#stall" x="575" y="310" width="18" height="12"/>
  <use href="#stall" x="615" y="310" width="18" height="12"/>
  <use href="#stall" x="655" y="310" width="18" height="12"/>
  <use href="#stall" x="695" y="310" width="18" height="12"/>
  
  <use href="#stall" x="295" y="330" width="18" height="12"/>
  <use href="#stall" x="335" y="330" width="18" height="12"/>
  <use href="#stall" x="375" y="330" width="18" height="12"/>
  <use href="#stall" x="415" y="330" width="18" height="12"/>
  <use href="#stall" x="455" y="330" width="18" height="12"/>
  <use href="#stall" x="495" y="330" width="18" height="12"/>
  <use href="#stall" x="535" y="330" width="18" height="12"/>
  <use href="#stall" x="575" y="330" width="18" height="12"/>
  <use href="#stall" x="615" y="330" width="18" height="12"/>
  <use href="#stall" x="655" y="330" width="18" height="12"/>
  <use href="#stall" x="695" y="330" width="18" height="12"/>
  
  <!-- 골목 입간판들 -->
  <use href="#signV" x="320" y="315" width="4" height="12"/>
  <use href="#signV" x="400" y="315" width="4" height="12"/>
  <use href="#signV" x="480" y="315" width="4" height="12"/>
  <use href="#signV" x="560" y="315" width="4" height="12"/>
  <use href="#signV" x="640" y="315" width="4" height="12"/>
  
  <text x="500" y="332" fill="#ff80ff" font-size="8" font-family="sans-serif" text-anchor="middle" opacity="0.5">상점가 메인골목</text>
  
  <!-- === 하단 상점 건물들 === -->
  <g opacity="0.95">
    <rect x="285" y="350" width="55" height="45" fill="#1b4e4e" stroke="#00ffff" stroke-width="2"/>
    <rect x="345" y="350" width="45" height="45" fill="#4e3d1b" stroke="#ffff00" stroke-width="2"/>
    <rect x="395" y="350" width="50" height="45" fill="#4e1b3d" stroke="#ff0080" stroke-width="2"/>
    <rect x="450" y="350" width="55" height="45" fill="#2d1b4e" stroke="url(#neonPink)" stroke-width="2"/>
    <rect x="510" y="350" width="45" height="45" fill="#1b2d4e" stroke="url(#neonBlue)" stroke-width="2"/>
    <rect x="560" y="350" width="50" height="45" fill="#1b4e3d" stroke="#00ff80" stroke-width="2"/>
    <rect x="615" y="350" width="45" height="45" fill="#4e1b2d" stroke="#ff4040" stroke-width="2"/>
    <rect x="665" y="350" width="50" height="45" fill="#4e1b3d" stroke="#ff0080" stroke-width="2"/>
  </g>
  
  <!-- 하단 상점 입간판 -->
  <use href="#signV" x="305" y="337" width="5" height="14"/>
  <use href="#signV" x="360" y="337" width="5" height="14"/>
  <use href="#signV" x="415" y="337" width="5" height="14"/>
  <use href="#signV" x="472" y="337" width="5" height="14"/>
  <use href="#signV" x="527" y="337" width="5" height="14"/>
  <use href="#signV" x="580" y="337" width="5" height="14"/>
  <use href="#signV" x="632" y="337" width="5" height="14"/>
  <use href="#signV" x="685" y="337" width="5" height="14"/>
  
  <!-- ========================================== -->
  <!-- 메인 도로 + 인도 + 가로수 + 가로등 (Y: 400-456) -->
  <!-- ========================================== -->
  
  <!-- 상단 인도 -->
  <rect x="25" y="400" width="950" height="12" fill="#4a4a5a"/>
  
  <!-- 상단 가로수 -->
  <use href="#tree" x="85" y="388" width="16" height="20"/>
  <use href="#tree" x="185" y="388" width="16" height="20"/>
  <use href="#tree" x="285" y="388" width="16" height="20"/>
  <use href="#tree" x="385" y="388" width="16" height="20"/>
  <use href="#tree" x="485" y="388" width="16" height="20"/>
  <use href="#tree" x="585" y="388" width="16" height="20"/>
  <use href="#tree" x="685" y="388" width="16" height="20"/>
  <use href="#tree" x="785" y="388" width="16" height="20"/>
  <use href="#tree" x="885" y="388" width="16" height="20"/>
  
  <!-- 도로 본체 -->
  <rect x="25" y="412" width="950" height="32" fill="#3a3a4a"/>
  <line x1="25" y1="428" x2="975" y2="428" stroke="#ffff00" stroke-width="2" stroke-dasharray="15,10" opacity="0.6"/>
  
  <!-- 하단 인도 -->
  <rect x="25" y="444" width="950" height="12" fill="#4a4a5a"/>
  
  <!-- 하단 가로수 -->
  <use href="#tree" x="135" y="444" width="16" height="20"/>
  <use href="#tree" x="235" y="444" width="16" height="20"/>
  <use href="#tree" x="335" y="444" width="16" height="20"/>
  <use href="#tree" x="435" y="444" width="16" height="20"/>
  <use href="#tree" x="535" y="444" width="16" height="20"/>
  <use href="#tree" x="635" y="444" width="16" height="20"/>
  <use href="#tree" x="735" y="444" width="16" height="20"/>
  <use href="#tree" x="835" y="444" width="16" height="20"/>
  <use href="#tree" x="935" y="444" width="16" height="20"/>
  
  <!-- 가로등 (메인 도로) -->
  <use href="#streetlamp" x="60" y="418" width="12" height="26"/>
  <use href="#streetlamp" x="160" y="418" width="12" height="26"/>
  <use href="#streetlamp" x="260" y="418" width="12" height="26"/>
  <use href="#streetlamp" x="360" y="418" width="12" height="26"/>
  <use href="#streetlamp" x="460" y="418" width="12" height="26"/>
  <use href="#streetlamp" x="560" y="418" width="12" height="26"/>
  <use href="#streetlamp" x="660" y="418" width="12" height="26"/>
  <use href="#streetlamp" x="760" y="418" width="12" height="26"/>
  <use href="#streetlamp" x="860" y="418" width="12" height="26"/>
  <use href="#streetlamp" x="960" y="418" width="12" height="26"/>
  
  <text x="500" y="432" fill="#888888" font-size="10" font-family="sans-serif" text-anchor="middle">도 로</text>
  
  <!-- ========================================== -->
  <!-- 고층빌딩 - 좌측 -->
  <!-- ========================================== -->
  <g opacity="0.85">
    <rect x="50" y="185" width="60" height="45" fill="#2d2d4e" stroke="#6060aa" stroke-width="1.5"/>
    <rect x="120" y="185" width="70" height="45" fill="#1b3d4e" stroke="#4080aa" stroke-width="1.5"/>
    <rect x="200" y="185" width="55" height="45" fill="#3d2d4e" stroke="#8060aa" stroke-width="1.5"/>
    
    <rect x="50" y="240" width="80" height="60" fill="#1b1b4e" stroke="url(#neonBlue)" stroke-width="2"/>
    <rect x="140" y="240" width="65" height="60" fill="#2d1b4e" stroke="url(#neonPink)" stroke-width="2"/>
    <rect x="215" y="240" width="55" height="60" fill="#1b4e4e" stroke="#00ffff" stroke-width="2"/>
    
    <rect x="50" y="310" width="70" height="85" fill="#4e1b3d" stroke="#ff0080" stroke-width="2"/>
    <rect x="130" y="310" width="75" height="85" fill="#1b2d4e" stroke="url(#neonBlue)" stroke-width="2"/>
    <rect x="215" y="310" width="55" height="85" fill="#2d1b4e" stroke="url(#neonPink)" stroke-width="2"/>
    
    <rect x="60" y="466" width="95" height="105" fill="#1b1b4e" stroke="url(#neonBlue)" stroke-width="3"/>
    <rect x="70" y="480" width="18" height="18" fill="#0a0a20" stroke="#4040aa" stroke-width="1"/>
    <rect x="93" y="480" width="18" height="18" fill="#0a0a20" stroke="#4040aa" stroke-width="1"/>
    <rect x="116" y="480" width="18" height="18" fill="#0a0a20" stroke="#4040aa" stroke-width="1"/>
    <rect x="70" y="505" width="18" height="18" fill="#0a0a20" stroke="#4040aa" stroke-width="1"/>
    <rect x="93" y="505" width="18" height="18" fill="#0a0a20" stroke="#4040aa" stroke-width="1"/>
    <rect x="116" y="505" width="18" height="18" fill="#0a0a20" stroke="#4040aa" stroke-width="1"/>
    
    <rect x="165" y="466" width="65" height="80" fill="#2d1b4e" stroke="url(#neonPink)" stroke-width="2"/>
    <rect x="240" y="466" width="55" height="80" fill="#1b4e3d" stroke="#00ff80" stroke-width="2"/>
    
    <rect x="50" y="580" width="85" height="65" fill="#4e1b3d" stroke="#ff0080" stroke-width="2"/>
    <rect x="145" y="555" width="75" height="90" fill="#1b4e4e" stroke="#00ffff" stroke-width="2"/>
    <rect x="230" y="580" width="65" height="65" fill="#4e3d1b" stroke="#ffff00" stroke-width="2"/>
    
    <rect x="50" y="655" width="55" height="50" fill="#2d2d4e" stroke="#5050aa" stroke-width="1"/>
    <rect x="115" y="655" width="65" height="50" fill="#3d2d3d" stroke="#aa50aa" stroke-width="1"/>
    <rect x="190" y="655" width="55" height="50" fill="#2d3d3d" stroke="#50aaaa" stroke-width="1"/>
    <rect x="255" y="655" width="40" height="50" fill="#3d3d2d" stroke="#aaaa50" stroke-width="1"/>
  </g>
  
  <text x="155" y="535" fill="#8080ff" font-size="13" font-family="sans-serif" text-anchor="middle" opacity="0.7">고층빌딩</text>
  
  <!-- ========================================== -->
  <!-- 고층빌딩 - 우측 -->
  <!-- ========================================== -->
  <g opacity="0.85">
    <rect x="745" y="185" width="60" height="45" fill="#3d2d4e" stroke="#8060aa" stroke-width="1.5"/>
    <rect x="815" y="185" width="65" height="45" fill="#2d3d4e" stroke="#6080aa" stroke-width="1.5"/>
    <rect x="890" y="185" width="50" height="45" fill="#2d2d4e" stroke="#6060aa" stroke-width="1.5"/>
    
    <rect x="720" y="240" width="65" height="60" fill="#1b4e4e" stroke="#00ffff" stroke-width="2"/>
    <rect x="795" y="240" width="75" height="60" fill="#2d1b4e" stroke="url(#neonPink)" stroke-width="2"/>
    <rect x="880" y="240" width="60" height="60" fill="#1b2d4e" stroke="url(#neonBlue)" stroke-width="2"/>
    
    <rect x="720" y="310" width="70" height="85" fill="#4e1b2d" stroke="#ff4040" stroke-width="2"/>
    <rect x="800" y="310" width="70" height="85" fill="#1b4e3d" stroke="#00ff80" stroke-width="2"/>
    <rect x="880" y="310" width="60" height="85" fill="#4e1b3d" stroke="#ff0080" stroke-width="2"/>
    
    <rect x="845" y="466" width="95" height="105" fill="#4e1b4e" stroke="url(#neonPink)" stroke-width="3"/>
    <rect x="855" y="480" width="18" height="18" fill="#200a20" stroke="#aa40aa" stroke-width="1"/>
    <rect x="878" y="480" width="18" height="18" fill="#200a20" stroke="#aa40aa" stroke-width="1"/>
    <rect x="901" y="480" width="18" height="18" fill="#200a20" stroke="#aa40aa" stroke-width="1"/>
    <rect x="855" y="505" width="18" height="18" fill="#200a20" stroke="#aa40aa" stroke-width="1"/>
    <rect x="878" y="505" width="18" height="18" fill="#200a20" stroke="#aa40aa" stroke-width="1"/>
    <rect x="901" y="505" width="18" height="18" fill="#200a20" stroke="#aa40aa" stroke-width="1"/>
    
    <rect x="710" y="466" width="60" height="80" fill="#1b2d4e" stroke="url(#neonBlue)" stroke-width="2"/>
    <rect x="780" y="466" width="55" height="80" fill="#4e3d1b" stroke="#ffff00" stroke-width="2"/>
    
    <rect x="710" y="555" width="70" height="90" fill="#1b4e4e" stroke="#00ffff" stroke-width="2"/>
    <rect x="790" y="580" width="80" height="65" fill="#2d1b4e" stroke="url(#neonPink)" stroke-width="2"/>
    <rect x="880" y="580" width="60" height="65" fill="#1b4e3d" stroke="#00ff80" stroke-width="2"/>
    
    <rect x="710" y="655" width="50" height="50" fill="#3d3d2d" stroke="#aaaa50" stroke-width="1"/>
    <rect x="770" y="655" width="60" height="50" fill="#2d3d3d" stroke="#50aaaa" stroke-width="1"/>
    <rect x="840" y="655" width="50" height="50" fill="#3d2d3d" stroke="#aa50aa" stroke-width="1"/>
    <rect x="900" y="655" width="40" height="50" fill="#2d2d4e" stroke="#5050aa" stroke-width="1"/>
  </g>
  
  <text x="845" y="535" fill="#ff80ff" font-size="13" font-family="sans-serif" text-anchor="middle" opacity="0.7">고층빌딩</text>
  
  <!-- ========================================== -->
  <!-- 고층빌딩 - 하단 중앙 -->
  <!-- ========================================== -->
  <g opacity="0.85">
    <rect x="310" y="466" width="65" height="75" fill="#4e1b3d" stroke="#ff0080" stroke-width="2"/>
    <rect x="310" y="550" width="65" height="65" fill="#1b2d4e" stroke="url(#neonBlue)" stroke-width="2"/>
    
    <rect x="385" y="466" width="100" height="115" fill="#1b1b4e" stroke="url(#neonBlue)" stroke-width="3"/>
    <rect x="395" y="480" width="20" height="20" fill="#0a0a20" stroke="#4040aa" stroke-width="1"/>
    <rect x="420" y="480" width="20" height="20" fill="#0a0a20" stroke="#4040aa" stroke-width="1"/>
    <rect x="445" y="480" width="20" height="20" fill="#0a0a20" stroke="#4040aa" stroke-width="1"/>
    <rect x="395" y="507" width="20" height="20" fill="#0a0a20" stroke="#4040aa" stroke-width="1"/>
    <rect x="420" y="507" width="20" height="20" fill="#0a0a20" stroke="#4040aa" stroke-width="1"/>
    <rect x="445" y="507" width="20" height="20" fill="#0a0a20" stroke="#4040aa" stroke-width="1"/>
    
    <rect x="495" y="476" width="85" height="105" fill="#4e1b4e" stroke="url(#neonPink)" stroke-width="3"/>
    <rect x="590" y="486" width="75" height="95" fill="#1b4e3d" stroke="#00ff80" stroke-width="2"/>
    
    <rect x="675" y="466" width="25" height="75" fill="#4e3d1b" stroke="#ffff00" stroke-width="2"/>
    
    <rect x="385" y="590" width="90" height="65" fill="#1b4e4e" stroke="#00ffff" stroke-width="2"/>
    <rect x="485" y="590" width="85" height="65" fill="#4e1b2d" stroke="#ff4040" stroke-width="2"/>
    <rect x="580" y="590" width="95" height="65" fill="#2d1b4e" stroke="url(#neonPink)" stroke-width="2"/>
    
    <rect x="310" y="625" width="65" height="80" fill="#2d3d3d" stroke="#50aaaa" stroke-width="1"/>
    <rect x="385" y="665" width="75" height="40" fill="#3d2d3d" stroke="#aa50aa" stroke-width="1"/>
    <rect x="470" y="665" width="85" height="40" fill="#2d2d4e" stroke="#5050aa" stroke-width="1"/>
    <rect x="565" y="665" width="65" height="40" fill="#3d3d2d" stroke="#aaaa50" stroke-width="1"/>
    <rect x="640" y="665" width="60" height="40" fill="#2d3d3d" stroke="#50aaaa" stroke-width="1"/>
  </g>
  
  <text x="500" y="695" fill="#8080ff" font-size="13" font-family="sans-serif" text-anchor="middle" opacity="0.7">고층빌딩</text>
  
  <!-- ========================================== -->
  <!-- 범례 -->
  <!-- ========================================== -->
  <g transform="translate(770, 15)">
    <rect x="0" y="0" width="170" height="165" fill="#0a0a15" stroke="#303050" stroke-width="1" rx="5" opacity="0.95"/>
    <text x="12" y="16" fill="#ffffff" font-size="10" font-family="sans-serif" font-weight="bold">범례</text>
    
    <rect x="12" y="25" width="10" height="8" fill="#3d3d3d" stroke="#2a2a2a" stroke-width="1"/>
    <text x="27" y="32" fill="#aaaaaa" font-size="8" font-family="sans-serif">담장</text>
    
    <rect x="60" y="25" width="10" height="8" fill="#2d2d3d" stroke="#8080aa" stroke-width="1"/>
    <text x="75" y="32" fill="#aaaaaa" font-size="8" font-family="sans-serif">건물</text>
    
    <rect x="108" y="25" width="10" height="8" fill="#252525"/>
    <text x="123" y="32" fill="#aaaaaa" font-size="8" font-family="sans-serif">마당</text>
    
    <use href="#gate" x="12" y="40" width="10" height="8"/>
    <text x="27" y="47" fill="#aaaaaa" font-size="8" font-family="sans-serif">대문</text>
    
    <use href="#pole" x="60" y="38" width="10" height="18"/>
    <text x="75" y="47" fill="#aaaaaa" font-size="8" font-family="sans-serif">전봇대</text>
    
    <rect x="108" y="40" width="10" height="8" fill="#4e1b3d" stroke="#ff0080" stroke-width="1"/>
    <text x="123" y="47" fill="#aaaaaa" font-size="8" font-family="sans-serif">상점</text>
    
    <rect x="12" y="57" width="10" height="8" fill="#1b1b4e" stroke="url(#neonBlue)" stroke-width="1"/>
    <text x="27" y="64" fill="#aaaaaa" font-size="8" font-family="sans-serif">빌딩</text>
    
    <rect x="60" y="57" width="20" height="8" fill="#3a3a4a"/>
    <text x="85" y="64" fill="#aaaaaa" font-size="8" font-family="sans-serif">도로</text>
    
    <rect x="120" y="57" width="10" height="8" fill="#202028"/>
    <text x="135" y="64" fill="#aaaaaa" font-size="8" font-family="sans-serif">계단</text>
    
    <use href="#stall" x="12" y="72" width="12" height="10"/>
    <text x="27" y="80" fill="#aaaaaa" font-size="8" font-family="sans-serif">좌판</text>
    
    <use href="#signV" x="62" y="70" width="5" height="15"/>
    <text x="75" y="80" fill="#aaaaaa" font-size="8" font-family="sans-serif">입간판</text>
    
    <rect x="112" y="72" width="20" height="8" fill="#0a0a12"/>
    <text x="137" y="80" fill="#aaaaaa" font-size="8" font-family="sans-serif">골목</text>
    
    <use href="#streetlamp" x="12" y="87" width="9" height="20"/>
    <text x="27" y="98" fill="#aaaaaa" font-size="8" font-family="sans-serif">가로등</text>
    
    <use href="#tree" x="60" y="87" width="12" height="16"/>
    <text x="77" y="98" fill="#aaaaaa" font-size="8" font-family="sans-serif">가로수</text>
    
    <rect x="112" y="90" width="20" height="7" fill="#4a4a5a"/>
    <text x="137" y="98" fill="#aaaaaa" font-size="8" font-family="sans-serif">인도</text>
    
    <rect x="12" y="108" width="10" height="8" fill="#2a2a2a" stroke="#222" stroke-width="1"/>
    <text x="27" y="115" fill="#aaaaaa" font-size="8" font-family="sans-serif">옹벽</text>
    
    <rect x="60" y="108" width="15" height="8" fill="url(#slopeLeft)"/>
    <text x="80" y="115" fill="#aaaaaa" font-size="8" font-family="sans-serif">경사면</text>
    
    <line x1="12" y1="128" x2="32" y2="128" stroke="#ffff00" stroke-width="2" stroke-dasharray="4,2"/>
    <text x="38" y="131" fill="#aaaaaa" font-size="8" font-family="sans-serif">중앙선</text>
    
    <line x1="90" y1="128" x2="110" y2="128" stroke="#aa3333" stroke-width="2"/>
    <text x="116" y="131" fill="#aaaaaa" font-size="8" font-family="sans-serif">경계선</text>
    
    <line x1="12" y1="143" x2="32" y2="143" stroke="#333" stroke-width="1"/>
    <text x="38" y="146" fill="#aaaaaa" font-size="8" font-family="sans-serif">전선</text>
    
    <text x="90" y="146" fill="#666666" font-size="7" font-family="sans-serif">*Three.js: Fog</text>
  </g>
</svg>
